<svg xmlns="http://www.w3.org/2000/svg" xmlns:xlink="http://www.w3.org/1999/xlink" width="1080" zoomAndPan="magnify" viewBox="0 0 810 809.999993" height="1080" preserveAspectRatio="xMidYMid meet" version="1.2"><g id="fedb0e836c"><path style=" stroke:none;fill-rule:nonzero;fill:#ff0000;fill-opacity:1;" d="M 406.234375 529.515625 C 405.230469 528.367188 404.332031 527.578125 403.6875 526.609375 C 387.214844 502.238281 370.347656 478.160156 354.449219 453.394531 C 338.296875 428.238281 324.550781 401.679688 315.007812 373.257812 C 306.789062 348.671875 309.011719 324.519531 320.136719 301.300781 C 330.832031 279.050781 347.878906 263.042969 370.777344 253.820312 C 397.15625 243.195312 423.390625 244.238281 448.691406 257.410156 C 479.734375 273.558594 496.636719 299.757812 500.945312 334.066406 C 503.027344 350.609375 499.941406 366.6875 493.945312 382.300781 C 485.046875 405.414062 473.8125 427.375 460.425781 448.15625 C 443.667969 474.175781 426.332031 499.800781 409.214844 525.566406 C 408.386719 526.859375 407.382812 528.007812 406.234375 529.515625 Z M 405.804688 381.871094 C 428.84375 381.582031 447.003906 363.0625 446.71875 340.09375 C 446.429688 318.382812 426.976562 299.828125 404.800781 300.117188 C 382.476562 300.4375 364.675781 319.386719 364.960938 342.570312 C 365.25 364.105469 384.019531 382.15625 405.804688 381.871094 Z M 405.804688 381.871094 "/><path style=" stroke:none;fill-rule:nonzero;fill:#ff0000;fill-opacity:1;" d="M 461.46875 526.394531 C 473.5625 528.222656 485.761719 530.125 496.457031 536.800781 C 503.207031 541 503.167969 546.777344 496.53125 551.15625 C 489.207031 555.964844 480.847656 558.117188 472.414062 559.839844 C 443.738281 565.796875 414.777344 566.804688 385.597656 565.441406 C 368.15625 564.613281 350.859375 562.964844 333.992188 558.476562 C 328.070312 556.898438 322.433594 554.277344 316.730469 552.015625 C 315.542969 551.550781 314.46875 550.652344 313.5 549.792969 C 309.15625 546.023438 309.046875 541.574219 313.679688 538.058594 C 316.511719 535.902344 319.816406 533.964844 323.1875 532.890625 C 332.054688 530.089844 341.097656 527.828125 350.070312 525.316406 C 350.210938 525.746094 350.355469 526.214844 350.5 526.644531 C 349.171875 527.074219 347.878906 527.503906 346.550781 527.9375 C 345.1875 528.367188 343.789062 528.691406 342.496094 529.300781 C 339.699219 530.59375 336.828125 531.777344 334.277344 533.464844 C 330.257812 536.15625 330.007812 540.03125 334.097656 542.472656 C 338.65625 545.199219 343.679688 547.601562 348.8125 548.859375 C 371.316406 554.53125 394.320312 555.785156 417.394531 554.53125 C 430.566406 553.8125 443.703125 552.269531 456.730469 550.1875 C 463.226562 549.144531 469.683594 546.667969 475.714844 543.835938 C 482.390625 540.710938 482.28125 535.761719 475.75 532.277344 C 471.15625 529.980469 466.203125 528.367188 461.46875 526.394531 Z M 461.46875 526.394531 "/><path style=" stroke:none;fill-rule:nonzero;fill:#ff0000;fill-opacity:1;" d="M 368.980469 525.136719 C 366.328125 526.394531 363.492188 527.363281 361.050781 528.976562 C 357.714844 531.167969 357.75 533.640625 361.480469 535.4375 C 365.5 537.375 369.808594 538.988281 374.1875 539.816406 C 395.289062 543.800781 416.460938 543.726562 437.566406 539.816406 C 441.835938 539.027344 446.070312 537.484375 449.984375 535.617188 C 454.003906 533.714844 453.964844 530.84375 450.125 528.582031 C 447.792969 527.21875 445.171875 526.320312 442.804688 524.921875 C 450.414062 526.105469 458.128906 527.148438 464.480469 532.136719 C 467.496094 534.503906 467.460938 537.804688 464.015625 539.742188 C 459.960938 542.039062 455.546875 544.050781 451.023438 545.199219 C 435.449219 549.21875 419.476562 550.152344 403.507812 549.578125 C 391.554688 549.144531 379.570312 548.140625 367.691406 546.632812 C 361.984375 545.917969 356.492188 543.582031 350.929688 541.859375 C 349.710938 541.464844 348.5625 540.675781 347.558594 539.851562 C 344.289062 537.195312 344.074219 533.679688 347.773438 531.777344 C 352.902344 529.15625 358.503906 527.46875 363.992188 525.53125 C 365.5 524.992188 367.1875 524.957031 368.804688 524.707031 C 368.875 524.8125 368.945312 524.957031 368.980469 525.136719 Z M 368.980469 525.136719 "/></g></svg>